# xmcd
#
# Track frame offsets: 
#        150
#        16416
#        32954
#        52374
#        68891
#        89112
#        104880
#        124475
#        143818
#        162466
#        180932
#        203356
#        218553
#        241122
#        258116
#
# Disc length: 3729 seconds
#
# Revision: 0
# Processed by: cddbd v1.5.2PL0 Copyright (c) Steve Scherf et al.
# Submitted via: ExactAudioCopy v0.95b4
#
DISCID=dd0e8f0f
DTITLE=Харитонов Николай - Играйте, чужие
DYEAR=2002
DGENRE=Blues
TTITLE0=Будем как небо
TTITLE1=1-й Пилот
TTITLE2=Ниагара
TTITLE3=День как день
TTITLE4=Я хожу по вертепам
TTITLE5=Духов день
TTITLE6=Играйте, чужие
TTITLE7=Женщина и блюз
TTITLE8=Я живу как трава
TTITLE9=Жало в плоть
TTITLE10=Новоначальный
TTITLE11=2-й Пилот
TTITLE12=Беды
TTITLE13=Солнце в профиль
TTITLE14=Джаз
EXTD=
EXTT0=
EXTT1=
EXTT2=
EXTT3=
EXTT4=
EXTT5=
EXTT6=
EXTT7=
EXTT8=
EXTT9=
EXTT10=
EXTT11=
EXTT12=
EXTT13=
EXTT14=
PLAYORDER=
